<svg width="316" height="91" viewBox="0 0 316 91" fill="none" xmlns="http://www.w3.org/2000/svg">
<path fill-rule="evenodd" clip-rule="evenodd" d="M194.492 50.2427H194.41C194.048 51.0437 193.355 51.7256 191.956 51.7256C190.242 51.7256 189.089 50.6728 189.089 48.8188V43.8951H190.885V48.5815C190.885 49.7978 191.494 50.4056 192.647 50.4056C193.57 50.4056 194.492 49.9755 194.492 49.0857V43.8951H196.288V51.5478H194.492V50.2427Z" fill="black"/>
<path fill-rule="evenodd" clip-rule="evenodd" d="M199.06 51.5478V43.895H200.855V45.2002H200.938C201.3 44.3992 201.992 43.7167 203.392 43.7167C205.105 43.7167 206.258 44.7701 206.258 46.6238V51.5478H204.463V46.8611C204.463 45.6451 203.853 45.0367 202.7 45.0367C201.777 45.0367 200.855 45.4671 200.855 46.3569V51.5478H199.06Z" fill="black"/>
<path fill-rule="evenodd" clip-rule="evenodd" d="M214.35 48.9968V46.4458C214.35 45.5112 213.46 45.0367 212.423 45.0367C211.072 45.0367 210.297 45.8525 210.297 47.0983V48.3442C210.297 49.5901 211.072 50.4056 212.423 50.4056C213.46 50.4056 214.35 49.9311 214.35 48.9968ZM214.35 50.2427H214.252C213.757 51.1624 212.934 51.7256 211.681 51.7256C209.688 51.7256 208.403 50.3464 208.403 47.7213C208.403 45.0962 209.688 43.7167 211.681 43.7167C212.934 43.7167 213.757 44.2804 214.252 45.1999H214.35V40.5727H216.145V51.5478H214.35V50.2427Z" fill="black"/>
<path fill-rule="evenodd" clip-rule="evenodd" d="M223.793 49.264V48.1515H222.195C220.877 48.1515 220.251 48.5223 220.251 49.2045V49.501C220.251 50.1832 220.844 50.5395 221.799 50.5395C222.953 50.5395 223.793 50.0203 223.793 49.264ZM225.556 51.5479C224.535 51.5479 224.024 51.0286 223.924 50.2573H223.842C223.513 51.177 222.623 51.7259 221.289 51.7259C219.559 51.7259 218.439 50.8509 218.439 49.4119C218.439 47.929 219.642 47.128 222.162 47.128H223.793V46.5347C223.793 45.5113 223.183 44.9775 221.964 44.9775C220.877 44.9775 220.235 45.3931 219.773 46.0305L218.703 45.2447C219.181 44.4138 220.333 43.7168 222.129 43.7168C224.271 43.7168 225.589 44.681 225.589 46.431V50.2724H226.659V51.5479H225.556Z" fill="black"/>
<path fill-rule="evenodd" clip-rule="evenodd" d="M235.889 45.5264L234.488 46.2086C234.192 45.4967 233.565 45.0518 232.577 45.0518C231.226 45.0518 230.436 45.8676 230.436 47.0836V48.3591C230.436 49.5603 231.209 50.3911 232.61 50.3911C233.664 50.3911 234.307 49.9166 234.702 49.1749L236.02 49.9015C235.493 50.9546 234.438 51.6812 232.741 51.7259L232.577 52.4078L232.643 52.4673C232.874 52.4078 233.121 52.3637 233.352 52.3637C233.994 52.3637 234.505 52.6901 234.505 53.372C234.505 54.2767 233.565 54.6475 232.528 54.6475C231.539 54.6475 230.979 54.3063 230.732 54.0246L231.408 53.3276C231.605 53.55 231.951 53.7429 232.445 53.7429C232.857 53.7429 233.17 53.6095 233.17 53.313C233.17 53.0755 232.973 52.8234 232.001 52.7194L231.589 52.675L231.819 51.6667C229.76 51.3844 228.558 49.9015 228.558 47.7213C228.558 45.2743 230.073 43.7168 232.577 43.7168C234.324 43.7168 235.361 44.4585 235.889 45.5264Z" fill="black"/>
<path fill-rule="evenodd" clip-rule="evenodd" d="M243.569 49.2641V48.1515H241.971C240.653 48.1515 240.026 48.5224 240.026 49.2046V49.5011C240.026 50.1833 240.62 50.5396 241.575 50.5396C242.728 50.5396 243.569 50.0203 243.569 49.2641ZM241.889 42.2488C241.394 42.0263 241.015 41.9076 240.67 41.9076C240.307 41.9076 240.043 42.0409 239.713 42.2935L239.038 41.5222C239.368 41.0622 239.928 40.6768 240.735 40.6768C241.279 40.6768 241.657 40.8545 242.02 41.0175C242.514 41.2402 242.893 41.3587 243.239 41.3587C243.601 41.3587 243.865 41.2254 244.194 40.9733L244.87 41.7446C244.54 42.2044 243.98 42.5898 243.173 42.5898C242.629 42.5898 242.251 42.4117 241.889 42.2488ZM245.331 51.5479C244.31 51.5479 243.799 51.0287 243.7 50.2574H243.618C243.288 51.1771 242.399 51.726 241.065 51.726C239.335 51.726 238.215 50.8509 238.215 49.412C238.215 47.9291 239.417 47.1281 241.938 47.1281H243.569V46.5348C243.569 45.5114 242.959 44.9776 241.74 44.9776C240.653 44.9776 240.01 45.3931 239.549 46.0306L238.478 45.2447C238.956 44.4139 240.109 43.7169 241.904 43.7169C244.046 43.7169 245.364 44.681 245.364 46.4311V50.2724H246.434V51.5479H245.331Z" fill="black"/>
<path fill-rule="evenodd" clip-rule="evenodd" d="M254.214 48.2994V47.1426C254.214 45.7187 253.358 44.9921 252.057 44.9921C250.755 44.9921 249.899 45.7187 249.899 47.1426V48.2994C249.899 49.7233 250.755 50.4499 252.057 50.4499C253.358 50.4499 254.214 49.7233 254.214 48.2994ZM248.021 47.7211C248.021 45.2738 249.553 43.7163 252.057 43.7163C254.561 43.7163 256.092 45.2738 256.092 47.7211C256.092 50.1682 254.561 51.7254 252.057 51.7254C249.553 51.7254 248.021 50.1682 248.021 47.7211Z" fill="black"/>
<path fill-rule="evenodd" clip-rule="evenodd" d="M185.049 66.1486V64.9028C185.049 63.6569 184.275 62.8411 182.924 62.8411C181.887 62.8411 180.997 63.3156 180.997 64.2502V66.8012C180.997 67.7355 181.887 68.21 182.924 68.21C184.275 68.21 185.049 67.3945 185.049 66.1486ZM179.201 61.6992H180.997V63.0043H181.096C181.59 62.0848 182.413 61.5209 183.666 61.5209C185.658 61.5209 186.943 62.9006 186.943 65.5257C186.943 68.1508 185.658 69.53 183.666 69.53C182.413 69.53 181.59 68.9666 181.096 68.0471H180.997V72.3185H179.201V61.6992Z" fill="black"/>
<path fill-rule="evenodd" clip-rule="evenodd" d="M194.13 67.0685V65.956H192.532C191.214 65.956 190.588 66.3268 190.588 67.009V67.3055C190.588 67.9877 191.181 68.344 192.136 68.344C193.289 68.344 194.13 67.8248 194.13 67.0685ZM195.893 69.3524C194.872 69.3524 194.361 68.8331 194.261 68.0618H194.179C193.85 68.9815 192.96 69.5304 191.626 69.5304C189.896 69.5304 188.776 68.6554 188.776 67.2164C188.776 65.7335 189.979 64.9326 192.499 64.9326H194.13V64.3393C194.13 63.3158 193.52 62.782 192.301 62.782C191.214 62.782 190.572 63.1976 190.11 63.8351L189.04 63.0492C189.518 62.2184 190.67 61.5214 192.466 61.5214C194.608 61.5214 195.926 62.4855 195.926 64.2356V68.0769H196.996V69.3524H195.893Z" fill="black"/>
<path fill-rule="evenodd" clip-rule="evenodd" d="M198.928 68.0472H201.185V63.0045H198.928V61.6996H202.981V63.7314H203.079C203.408 62.6633 204.15 61.6996 205.88 61.6996H206.901V63.2418H205.221C203.755 63.2418 202.981 64.1168 202.981 65.1846V68.0472H206.061V69.3524H198.928V68.0472Z" fill="black"/>
<path fill-rule="evenodd" clip-rule="evenodd" d="M213.905 67.0685V65.956H212.307C210.99 65.956 210.363 66.3268 210.363 67.009V67.3055C210.363 67.9877 210.957 68.344 211.912 68.344C213.065 68.344 213.905 67.8248 213.905 67.0685ZM215.668 69.3524C214.647 69.3524 214.136 68.8331 214.037 68.0618H213.955C213.625 68.9815 212.736 69.5304 211.402 69.5304C209.672 69.5304 208.552 68.6554 208.552 67.2164C208.552 65.7335 209.754 64.9326 212.275 64.9326H213.905V64.3393C213.905 63.3158 213.296 62.782 212.077 62.782C210.99 62.782 210.347 63.1976 209.886 63.8351L208.815 63.0492C209.293 62.2184 210.446 61.5214 212.241 61.5214C214.383 61.5214 215.701 62.4855 215.701 64.2356V68.0769H216.771V69.3524H215.668Z" fill="black"/>
<path fill-rule="evenodd" clip-rule="evenodd" d="M233.681 67.0685V65.956H232.084C230.766 65.956 230.139 66.3268 230.139 67.009V67.3055C230.139 67.9877 230.732 68.344 231.688 68.344C232.841 68.344 233.681 67.8248 233.681 67.0685ZM235.444 69.3524C234.423 69.3524 233.912 68.8331 233.813 68.0618H233.73C233.401 68.9815 232.511 69.5304 231.178 69.5304C229.448 69.5304 228.328 68.6554 228.328 67.2164C228.328 65.7335 229.53 64.9326 232.05 64.9326H233.681V64.3393C233.681 63.3158 233.071 62.782 231.852 62.782C230.766 62.782 230.123 63.1976 229.661 63.8351L228.591 63.0492C229.069 62.2184 230.221 61.5214 232.017 61.5214C234.159 61.5214 235.477 62.4855 235.477 64.2356V68.0769H236.547V69.3524H235.444Z" fill="black"/>
<path fill-rule="evenodd" clip-rule="evenodd" d="M248.07 64.176C248.07 60.75 249.47 58.8216 252.386 58.8216C254.61 58.8216 255.631 59.9789 256.158 61.3874L254.495 61.8919C254.148 60.9425 253.671 60.2014 252.369 60.2014C250.738 60.2014 250.03 61.4025 250.03 63.301V65.051C250.03 66.9494 250.738 68.1506 252.369 68.1506C253.671 68.1506 254.148 67.4089 254.495 66.4598L256.158 66.964C255.631 68.3731 254.61 69.5298 252.386 69.5298C249.47 69.5298 248.07 67.602 248.07 64.176Z" fill="black"/>
<path fill-rule="evenodd" clip-rule="evenodd" d="M261.236 59.4303V59.1187C261.236 58.6293 261.565 58.2437 262.455 58.2437C263.361 58.2437 263.69 58.6293 263.69 59.1187V59.4303C263.69 59.9194 263.361 60.3053 262.471 60.3053C261.565 60.3053 261.236 59.9194 261.236 59.4303ZM258.665 68.0472H261.565V63.0044H258.665V61.6996H263.361V68.0472H266.078V69.3524H258.665V68.0472Z" fill="black"/>
<path fill-rule="evenodd" clip-rule="evenodd" d="M269.69 64.7838V64.8875H273.957V64.7391C273.957 63.5379 273.133 62.7521 271.88 62.7521C270.596 62.7521 269.69 63.5975 269.69 64.7838ZM272.754 57.8723L274.731 60.0974L273.775 60.7201L271.831 58.9999L269.871 60.7201L268.965 60.0974L270.942 57.8723H272.754ZM267.878 65.5401C267.878 63.0782 269.459 61.5207 271.88 61.5207C274.27 61.5207 275.785 63.0634 275.785 65.3176V65.926H269.69V66.1781C269.69 67.3792 270.58 68.2246 272.045 68.2246C273.133 68.2246 273.923 67.7646 274.401 67.0531L275.522 67.9429C274.945 68.8327 273.759 69.5297 272.013 69.5297C269.41 69.5297 267.878 67.9725 267.878 65.5401Z" fill="black"/>
<path fill-rule="evenodd" clip-rule="evenodd" d="M278.162 69.3524V61.6996H279.957V63.0048H280.04C280.402 62.2038 281.094 61.5214 282.494 61.5214C284.207 61.5214 285.36 62.5747 285.36 64.4284V69.3524H283.565V64.6657C283.565 63.4497 282.955 62.8413 281.802 62.8413C280.879 62.8413 279.957 63.2717 279.957 64.1615V69.3524H278.162Z" fill="black"/>
<path fill-rule="evenodd" clip-rule="evenodd" d="M287.884 65.5256C287.884 63.0786 289.399 61.5208 291.904 61.5208C293.65 61.5208 294.688 62.2625 295.215 63.3307L293.815 64.0126C293.519 63.301 292.892 62.8558 291.904 62.8558C290.553 62.8558 289.762 63.6719 289.762 64.8876V66.1631C289.762 67.3646 290.536 68.1954 291.937 68.1954C292.991 68.1954 293.633 67.7206 294.029 66.9789L295.347 67.7058C294.803 68.7736 293.699 69.5299 291.92 69.5299C289.383 69.5299 287.884 67.9727 287.884 65.5256Z" fill="black"/>
<path fill-rule="evenodd" clip-rule="evenodd" d="M300.786 59.4303V59.1187C300.786 58.6293 301.116 58.2437 302.005 58.2437C302.911 58.2437 303.241 58.6293 303.241 59.1187V59.4303C303.241 59.9194 302.911 60.3053 302.022 60.3053C301.116 60.3053 300.786 59.9194 300.786 59.4303ZM298.216 68.0472H301.116V63.0044H298.216V61.6996H302.911V68.0472H305.629V69.3524H298.216V68.0472Z" fill="black"/>
<path fill-rule="evenodd" clip-rule="evenodd" d="M312.783 67.0685V65.956H311.185C309.868 65.956 309.241 66.3268 309.241 67.009V67.3055C309.241 67.9877 309.834 68.344 310.79 68.344C311.943 68.344 312.783 67.8248 312.783 67.0685ZM314.546 69.3524C313.525 69.3524 313.014 68.8331 312.915 68.0618H312.832C312.503 68.9815 311.613 69.5304 310.28 69.5304C308.55 69.5304 307.43 68.6554 307.43 67.2164C307.43 65.7335 308.632 64.9326 311.152 64.9326H312.783V64.3393C312.783 63.3158 312.173 62.782 310.954 62.782C309.868 62.782 309.225 63.1976 308.764 63.8351L307.693 63.0492C308.171 62.2184 309.324 61.5214 311.119 61.5214C313.261 61.5214 314.579 62.4855 314.579 64.2356V68.0769H315.649V69.3524H314.546Z" fill="black"/>
<path fill-rule="evenodd" clip-rule="evenodd" d="M180.7 82.5885V82.6922H184.968V82.5438C184.968 81.3426 184.144 80.5568 182.891 80.5568C181.606 80.5568 180.7 81.4022 180.7 82.5885ZM178.889 83.3448C178.889 80.8829 180.47 79.3254 182.891 79.3254C185.28 79.3254 186.796 80.8681 186.796 83.1223V83.7307H180.7V83.9828C180.7 85.184 181.59 86.0293 183.056 86.0293C184.144 86.0293 184.934 85.5693 185.412 84.8578L186.533 85.7476C185.956 86.6375 184.769 87.3345 183.024 87.3345C180.421 87.3345 178.889 85.7773 178.889 83.3448Z" fill="black"/>
<path fill-rule="evenodd" clip-rule="evenodd" d="M204.018 84.8727V83.7601H202.42C201.103 83.7601 200.476 84.131 200.476 84.8131V85.1097C200.476 85.7919 201.069 86.1482 202.024 86.1482C203.178 86.1482 204.018 85.6289 204.018 84.8727ZM205.781 87.1565C204.76 87.1565 204.249 86.6373 204.15 85.8659H204.067C203.738 86.7857 202.848 87.3345 201.514 87.3345C199.785 87.3345 198.665 86.4595 198.665 85.0205C198.665 83.5376 199.867 82.7367 202.387 82.7367H204.018V82.1434C204.018 81.1199 203.408 80.5861 202.189 80.5861C201.103 80.5861 200.46 81.0017 199.998 81.6392L198.928 80.8533C199.406 80.0224 200.558 79.3254 202.354 79.3254C204.496 79.3254 205.814 80.2896 205.814 82.0397V85.881H206.884V87.1565H205.781Z" fill="black"/>
<path fill-rule="evenodd" clip-rule="evenodd" d="M223.315 78.1981V87.1563H221.47V78.1981H217.862V76.8044H226.923V78.1981H223.315Z" fill="black"/>
<path fill-rule="evenodd" clip-rule="evenodd" d="M230.139 82.5885V82.6922H234.406V82.5438C234.406 81.3426 233.582 80.5568 232.33 80.5568C231.045 80.5568 230.139 81.4022 230.139 82.5885ZM228.327 83.3448C228.327 80.8829 229.908 79.3254 232.33 79.3254C234.719 79.3254 236.234 80.8681 236.234 83.1223V83.7307H230.139V83.9828C230.139 85.184 231.028 86.0293 232.494 86.0293C233.582 86.0293 234.372 85.5693 234.85 84.8578L235.971 85.7476C235.394 86.6375 234.208 87.3345 232.462 87.3345C229.859 87.3345 228.327 85.7773 228.327 83.3448Z" fill="black"/>
<path fill-rule="evenodd" clip-rule="evenodd" d="M238.445 83.3302C238.445 80.8832 239.96 79.3254 242.465 79.3254C244.211 79.3254 245.249 80.0671 245.776 81.1353L244.376 81.8172C244.08 81.1056 243.453 80.6605 242.465 80.6605C241.114 80.6605 240.323 81.4765 240.323 82.6922V83.9677C240.323 85.1691 241.097 86 242.498 86C243.552 86 244.194 85.5252 244.59 84.7835L245.908 85.5104C245.364 86.5782 244.26 87.3345 242.481 87.3345C239.944 87.3345 238.445 85.7773 238.445 83.3302Z" fill="black"/>
<path fill-rule="evenodd" clip-rule="evenodd" d="M248.499 87.1566V79.5038H250.294V80.8089H250.377C250.738 80.008 251.431 79.3255 252.831 79.3255C254.544 79.3255 255.697 80.3788 255.697 82.2326V87.1566H253.902V82.4698C253.902 81.2538 253.292 80.6454 252.139 80.6454C251.216 80.6454 250.294 81.0758 250.294 81.9657V87.1566H248.499Z" fill="black"/>
<path fill-rule="evenodd" clip-rule="evenodd" d="M264.102 83.9085V82.7517C264.102 81.3278 263.245 80.6012 261.944 80.6012C260.643 80.6012 259.786 81.3278 259.786 82.7517V83.9085C259.786 85.3323 260.643 86.059 261.944 86.059C263.245 86.059 264.102 85.3323 264.102 83.9085ZM257.908 83.3302C257.908 80.8829 259.44 79.3254 261.944 79.3254C264.448 79.3254 265.98 80.8829 265.98 83.3302C265.98 85.7773 264.448 87.3345 261.944 87.3345C259.44 87.3345 257.908 85.7773 257.908 83.3302Z" fill="black"/>
<path fill-rule="evenodd" clip-rule="evenodd" d="M268.125 85.8514H270.942V77.4866H268.125V76.1815H272.737V85.8514H275.554V87.1566H268.125V85.8514Z" fill="black"/>
<path fill-rule="evenodd" clip-rule="evenodd" d="M283.878 83.9085V82.7517C283.878 81.3278 283.021 80.6012 281.72 80.6012C280.419 80.6012 279.562 81.3278 279.562 82.7517V83.9085C279.562 85.3323 280.419 86.059 281.72 86.059C283.021 86.059 283.878 85.3323 283.878 83.9085ZM277.684 83.3302C277.684 80.8829 279.216 79.3254 281.72 79.3254C284.224 79.3254 285.756 80.8829 285.756 83.3302C285.756 85.7773 284.224 87.3345 281.72 87.3345C279.216 87.3345 277.684 85.7773 277.684 83.3302Z" fill="black"/>
<path fill-rule="evenodd" clip-rule="evenodd" d="M293.238 82.2027V81.8022C293.238 80.9864 292.695 80.4376 291.541 80.4376C290.388 80.4376 289.844 80.9864 289.844 81.8022V82.2027C289.844 83.0182 290.388 83.5668 291.541 83.5668C292.695 83.5668 293.238 83.0182 293.238 82.2027ZM292.777 87.2455H289.828C289.416 87.4232 289.202 87.7049 289.202 88.1054C289.202 88.6836 289.696 89.1584 290.948 89.1584H292.283C293.633 89.1584 294.375 88.7876 294.375 88.0903C294.375 87.5716 293.979 87.2455 292.777 87.2455ZM291.59 90.3004C288.658 90.3004 287.637 89.6034 287.637 88.4612C287.637 87.6309 288.18 87.2007 289.12 86.9783V86.8299C288.543 86.6371 288.18 86.2961 288.18 85.7173C288.18 84.9611 288.823 84.6198 289.712 84.4273V84.3532C288.691 83.9231 288.082 83.1073 288.082 82.0099C288.082 80.3786 289.449 79.325 291.541 79.325C292.135 79.325 292.678 79.4142 293.139 79.5776V79.325C293.139 78.7322 293.518 78.287 294.276 78.287H295.824V79.5625H293.847V79.9186C294.588 80.3786 295 81.0901 295 82.0099C295 83.6411 293.633 84.6794 291.541 84.6794C291.163 84.6794 290.816 84.6497 290.487 84.5902C290.091 84.6794 289.597 84.9166 289.597 85.3319C289.597 85.8065 290.174 85.8657 290.915 85.8657H292.826C295.116 85.8657 296.055 86.7262 296.055 87.9866C296.055 89.5586 294.588 90.3004 291.59 90.3004Z" fill="black"/>
<path fill-rule="evenodd" clip-rule="evenodd" d="M300.786 77.2344V76.9228C300.786 76.4334 301.116 76.0477 302.005 76.0477C302.911 76.0477 303.241 76.4334 303.241 76.9228V77.2344C303.241 77.7234 302.911 78.1094 302.022 78.1094C301.116 78.1094 300.786 77.7234 300.786 77.2344ZM298.216 85.8512H301.116V80.8085H298.216V79.5036H302.911V85.8512H305.629V87.1564H298.216V85.8512Z" fill="black"/>
<path fill-rule="evenodd" clip-rule="evenodd" d="M312.783 84.8727V83.7601H311.185C309.868 83.7601 309.241 84.131 309.241 84.8131V85.1097C309.241 85.7919 309.834 86.1482 310.79 86.1482C311.943 86.1482 312.783 85.6289 312.783 84.8727ZM314.546 87.1565C313.525 87.1565 313.014 86.6373 312.915 85.8659H312.832C312.503 86.7857 311.613 87.3345 310.28 87.3345C308.55 87.3345 307.43 86.4595 307.43 85.0205C307.43 83.5376 308.632 82.7367 311.152 82.7367H312.783V82.1434C312.783 81.1199 312.173 80.5861 310.954 80.5861C309.868 80.5861 309.225 81.0017 308.764 81.6392L307.693 80.8533C308.171 80.0224 309.324 79.3254 311.119 79.3254C313.261 79.3254 314.579 80.2896 314.579 82.0397V85.881H315.649V87.1565H314.546Z" fill="black"/>
<path fill-rule="evenodd" clip-rule="evenodd" d="M26.485 36.8173H46.6788V44.637H26.485V79.4791H46.6788V87.2985H0V79.4791H16.6424V44.637H0V36.8173H13.056C15.0366 36.8173 16.6424 35.3718 16.6424 33.5887V28.6709C16.6424 26.6728 17.524 24.7565 19.0932 23.3437L28.4234 14.9436C29.9927 13.5307 32.1211 12.7798 34.3404 12.7798H46.6788V20.5568H26.485V36.8173Z" fill="black"/>
<path fill-rule="evenodd" clip-rule="evenodd" d="M74.2056 12.7798H95.2969V20.5995H66.2012V58.7289H95.2969V66.5484H74.2056C71.9863 66.5484 69.8579 65.7547 68.2886 64.3418L58.8083 55.8065C57.239 54.3937 56.3574 52.4774 56.3574 50.4793V28.8488C56.3574 26.8507 57.239 24.9345 58.8083 23.5217L68.2886 14.9863C69.8579 13.5735 71.9863 12.7798 74.2056 12.7798Z" fill="black"/>
<path fill-rule="evenodd" clip-rule="evenodd" d="M120.798 51.2071V20.5995H104.435V12.78H117.212C119.192 12.78 120.798 11.3343 120.798 9.55114V0.268982H130.64V12.78H151.863V20.5995H130.64V58.7289H151.863V66.5487H136.754C134.341 66.5487 132.045 65.6109 130.456 63.9758L122.868 56.1679C121.533 54.7947 120.798 53.032 120.798 51.2071Z" fill="black"/>
<path fill-rule="evenodd" clip-rule="evenodd" d="M56.3574 87.2986H151.863V79.4802H56.3574V87.2986Z" fill="black"/>
<path fill-rule="evenodd" clip-rule="evenodd" d="M179.317 51.5474V41.1953H186.713V42.5893H181.162V45.6H186.203V46.9943H181.162V51.5474H179.317Z" fill="black"/>
</svg>
